<svg width="1512" height="971" viewBox="0 0 1512 971" fill="none" xmlns="http://www.w3.org/2000/svg">
<path fill-rule="evenodd" clip-rule="evenodd" d="M-70.3046 119.031C96.0493 39.7985 373.031 -31.7055 704.751 44.3038C1144.87 145.152 1484.3 90.1119 1599 2V119.031H1650V776.694C1636.13 787.619 1619.05 799.486 1599 811.748V851.969H1524.3C1357.95 931.201 1080.97 1002.71 749.249 926.696C309.126 825.848 -30.3014 880.888 -145 969V851.969H-196V194.306C-182.125 183.381 -165.053 171.514 -145 159.252V119.031H-70.3046Z" fill="#226991"/>
<path d="M704.751 44.3038L704.863 43.8164L704.751 44.3038ZM-70.3046 119.031V119.531H-70.1917L-70.0896 119.482L-70.3046 119.031ZM1599 2H1599.5V0.985395L1598.7 1.60349L1599 2ZM1599 119.031H1598.5V119.531H1599V119.031ZM1650 119.031H1650.5V118.531H1650V119.031ZM1650 776.694L1650.31 777.087L1650.5 776.937V776.694H1650ZM1599 811.748L1598.74 811.321L1598.5 811.468V811.748H1599ZM1599 851.969V852.469H1599.5V851.969H1599ZM1524.3 851.969V851.469H1524.19L1524.09 851.518L1524.3 851.969ZM749.249 926.696L749.137 927.184L749.249 926.696ZM-145 969H-145.5V970.015L-144.695 969.396L-145 969ZM-145 851.969H-144.5V851.469H-145V851.969ZM-196 851.969H-196.5V852.469H-196V851.969ZM-196 194.306L-196.309 193.913L-196.5 194.063V194.306H-196ZM-145 159.252L-144.739 159.679L-144.5 159.532V159.252H-145ZM-145 119.031V118.531H-145.5V119.031H-145ZM704.863 43.8164C373.014 -32.2223 95.9171 39.3076 -70.5197 118.58L-70.0896 119.482C96.1815 40.2894 373.048 -31.1886 704.639 44.7911L704.863 43.8164ZM1598.7 1.60349C1541.46 45.5702 1428.05 81.3479 1273.87 93.5135C1119.72 105.677 924.879 94.2302 704.863 43.8164L704.639 44.7911C924.746 95.2256 1119.68 106.683 1273.95 94.5104C1428.19 82.34 1541.84 46.5417 1599.3 2.39651L1598.7 1.60349ZM1599.5 119.031V2H1598.5V119.031H1599.5ZM1650 118.531H1599V119.531H1650V118.531ZM1650.5 776.694V119.031H1649.5V776.694H1650.5ZM1599.26 812.174C1619.33 799.904 1636.42 788.026 1650.31 777.087L1649.69 776.301C1635.83 787.212 1618.78 799.068 1598.74 811.321L1599.26 812.174ZM1599.5 851.969V811.748H1598.5V851.969H1599.5ZM1524.3 852.469H1599V851.469H1524.3V852.469ZM749.137 927.184C1080.99 1003.22 1358.08 931.692 1524.52 852.42L1524.09 851.518C1357.82 930.711 1080.95 1002.19 749.361 926.209L749.137 927.184ZM-144.695 969.396C-87.4623 925.43 25.9508 889.652 180.13 877.487C334.285 865.323 529.121 876.77 749.137 927.184L749.361 926.209C529.254 875.774 334.316 864.317 180.051 876.49C25.811 888.66 -87.8391 924.458 -145.305 968.604L-144.695 969.396ZM-145.5 851.969V969H-144.5V851.969H-145.5ZM-196 852.469H-145V851.469H-196V852.469ZM-196.5 194.306V851.969H-195.5V194.306H-196.5ZM-145.261 158.826C-165.328 171.096 -182.417 182.974 -196.309 193.913L-195.691 194.699C-181.834 183.788 -164.777 171.932 -144.739 159.679L-145.261 158.826ZM-145.5 119.031V159.252H-144.5V119.031H-145.5ZM-70.3046 118.531H-145V119.531H-70.3046V118.531Z" fill="#237DB0"/>
</svg>
