<svg width="42" height="38" viewBox="0 0 42 38" fill="none" xmlns="http://www.w3.org/2000/svg">
<path fill-rule="evenodd" clip-rule="evenodd" d="M0 14.5714C0 13.9842 0.276562 13.421 0.768845 13.0057C1.26113 12.5904 1.92881 12.3571 2.625 12.3571H29.6835C30.3797 12.3571 31.0474 12.5904 31.5397 13.0057C32.0319 13.421 32.3085 13.9842 32.3085 14.5714C32.3085 15.1587 32.0319 15.7219 31.5397 16.1372C31.0474 16.5524 30.3797 16.7857 29.6835 16.7857H2.625C1.92881 16.7857 1.26113 16.5524 0.768845 16.1372C0.276562 15.7219 0 15.1587 0 14.5714ZM0 5.71429C0 5.12702 0.276562 4.56381 0.768845 4.14855C1.26113 3.73329 1.92881 3.5 2.625 3.5H39.375C40.0712 3.5 40.7389 3.73329 41.2312 4.14855C41.7234 4.56381 42 5.12702 42 5.71429C42 6.30155 41.7234 6.86476 41.2312 7.28002C40.7389 7.69528 40.0712 7.92857 39.375 7.92857H2.625C1.92881 7.92857 1.26113 7.69528 0.768845 7.28002C0.276562 6.86476 0 6.30155 0 5.71429ZM0 23.4286C0 22.8413 0.276562 22.2781 0.768845 21.8628C1.26113 21.4476 1.92881 21.2143 2.625 21.2143H39.375C40.0712 21.2143 40.7389 21.4476 41.2312 21.8628C41.7234 22.2781 42 22.8413 42 23.4286C42 24.0158 41.7234 24.579 41.2312 24.9943C40.7389 25.4096 40.0712 25.6429 39.375 25.6429H2.625C1.92881 25.6429 1.26113 25.4096 0.768845 24.9943C0.276562 24.579 0 24.0158 0 23.4286ZM0 32.2857C0 31.6984 0.276562 31.1352 0.768845 30.72C1.26113 30.3047 1.92881 30.0714 2.625 30.0714H29.6835C30.3797 30.0714 31.0474 30.3047 31.5397 30.72C32.0319 31.1352 32.3085 31.6984 32.3085 32.2857C32.3085 32.873 32.0319 33.4362 31.5397 33.8515C31.0474 34.2667 30.3797 34.5 29.6835 34.5H2.625C1.92881 34.5 1.26113 34.2667 0.768845 33.8515C0.276562 33.4362 0 32.873 0 32.2857Z" fill="black"/>
</svg>
