<svg width="578" height="443" viewBox="0 0 578 443" fill="none" xmlns="http://www.w3.org/2000/svg">
<path d="M526.686 38.188C560.074 73.6228 578 113.366 578 177.79C578 291.155 498.355 392.763 382.535 443L353.588 398.366C461.693 339.935 482.828 264.109 491.256 216.301C473.849 225.306 451.061 228.448 428.727 226.375C370.249 220.966 324.155 172.996 324.155 113.366C324.155 83.2991 336.108 54.4641 357.384 33.2039C378.661 11.9438 407.519 0 437.609 0C454.249 0.145325 470.694 3.59641 485.987 10.1525C501.279 16.7085 515.114 26.2386 526.686 38.188ZM202.532 38.188C235.92 73.6228 253.845 113.366 253.845 177.79C253.845 291.155 174.201 392.763 58.3802 443L29.4332 398.366C137.539 339.935 158.674 264.109 167.102 216.301C149.695 225.306 126.907 228.448 104.572 226.375C46.0948 220.966 0 172.996 0 113.366C0 83.2991 11.9531 54.4641 33.2299 33.2039C54.5067 11.9438 83.3642 0 113.454 0C130.094 0.145325 146.539 3.59641 161.832 10.1525C177.125 16.7085 190.96 26.2386 202.532 38.188Z" fill="black" fill-opacity="0.04"/>
</svg>
